<svg width="38" height="34" viewBox="0 0 38 34" fill="none" xmlns="http://www.w3.org/2000/svg">
<path d="M1 13.6511H37M35 26.3022V15.083C35 14.5484 35.0002 14.2812 34.9688 14.0184C34.9408 13.785 34.8941 13.5542 34.8297 13.3289C34.7571 13.0753 34.6539 12.8312 34.448 12.3427L31.3555 5.00701C30.744 3.55665 30.4383 2.8313 29.9551 2.29955C29.5279 1.82952 29.0041 1.47021 28.4232 1.24959C27.766 1 27.0126 1 25.5071 1H12.4922C10.9867 1 10.2343 1 9.57715 1.24959C8.99625 1.47021 8.47207 1.82952 8.04492 2.29955C7.56168 2.8313 7.25571 3.55665 6.64428 5.00701L3.55176 12.3427C3.34582 12.8312 3.24244 13.0753 3.16992 13.3289C3.10551 13.5542 3.05937 13.785 3.03144 14.0184C3 14.2812 3 14.5484 3 15.083V26.3022M35 26.3022L3 26.3022M35 26.3022V28.4108C35 30.7398 33.2091 32.6278 31 32.6278C28.7909 32.6278 27 30.7398 27 28.4108V26.3022M3 26.3022V28.4108C3 30.7398 4.79086 32.6278 7 32.6278C9.20914 32.6278 11 30.7398 11 28.4108V26.3022" stroke="white" stroke-width="2" stroke-linecap="round" stroke-linejoin="round"/>
</svg>
