<svg width="19" height="20" viewBox="0 0 19 20" fill="none" xmlns="http://www.w3.org/2000/svg">
<path d="M14.4404 11.9778C14.2055 12.2321 14.0975 12.6 14.1511 12.9607L14.9575 17.9464C15.0255 18.369 14.8659 18.7966 14.5493 19.0408C14.239 19.2942 13.8263 19.3246 13.4879 19.1219L9.47028 16.7811C9.33058 16.698 9.17547 16.6534 9.01672 16.6483H8.77089C8.68562 16.6625 8.60216 16.6929 8.52596 16.7395L4.5074 19.0915C4.30874 19.203 4.08377 19.2425 3.86334 19.203C3.32632 19.0895 2.968 18.518 3.05599 17.915L3.86334 12.9293C3.91686 12.5655 3.80891 12.1957 3.57396 11.9373L0.298332 8.39054C0.0243798 8.09362 -0.0708685 7.64775 0.0543149 7.24545C0.17587 6.84416 0.486107 6.55131 0.86075 6.48544L5.36917 5.75481C5.71206 5.71529 6.01323 5.48222 6.16744 5.13768L8.15404 0.587743C8.20121 0.486408 8.26199 0.39318 8.33547 0.314138L8.41711 0.243204C8.45974 0.19051 8.50873 0.146936 8.56316 0.111468L8.66203 0.0709345L8.81624 0H9.19814C9.53922 0.0395206 9.83948 0.267524 9.99642 0.60801L12.0093 5.13768C12.1545 5.46905 12.4366 5.69908 12.7622 5.75481L17.2707 6.48544C17.6517 6.54624 17.9701 6.84011 18.0961 7.24545C18.215 7.6518 18.1125 8.09768 17.8331 8.39054L14.4404 11.9778Z" fill="#DE8F32"/>
</svg>
